<svg width="971" height="617" viewBox="0 0 971 617" fill="none" xmlns="http://www.w3.org/2000/svg">
<path d="M24.0349 270C25.5302 270 26.6622 270.63 27.4308 271.891C28.2134 273.138 28.6047 274.953 28.6047 277.336C28.6047 279.719 28.2134 281.541 27.4308 282.802C26.6622 284.063 25.5302 284.693 24.0349 284.693C22.5536 284.693 21.4216 284.063 20.639 282.802C19.8564 281.541 19.4651 279.719 19.4651 277.336C19.4651 274.967 19.8564 273.152 20.639 271.891C21.4216 270.63 22.5536 270 24.0349 270ZM20.9534 277.336C20.9534 279.026 21.1072 280.35 21.4146 281.306L26.0683 272.099C25.5791 271.448 24.9013 271.122 24.0349 271.122C23.0706 271.122 22.316 271.635 21.771 272.66C21.2259 273.672 20.9534 275.23 20.9534 277.336ZM24.0349 283.55C25.0131 283.55 25.7748 283.044 26.3198 282.033C26.8648 281.008 27.1373 279.442 27.1373 277.336C27.1373 275.549 26.9627 274.163 26.6133 273.18L21.9596 282.469C22.4627 283.19 23.1545 283.55 24.0349 283.55Z" fill="url(#paint0_linear_175_1815)" fill-opacity="0.6"/>
<path d="M25.2926 307.135H28.3741V308.236H20.3874V307.135H23.9511V295.455L20.5551 297.471L19.9682 296.536L24.1607 293.959H25.2926V307.135Z" fill="url(#paint1_linear_175_1815)" fill-opacity="0.6"/>
<path d="M24.0349 317.502C25.5302 317.502 26.6622 318.133 27.4308 319.393C28.2134 320.64 28.6047 322.455 28.6047 324.838C28.6047 327.221 28.2134 329.043 27.4308 330.304C26.6622 331.565 25.5302 332.195 24.0349 332.195C22.5536 332.195 21.4216 331.565 20.639 330.304C19.8564 329.043 19.4651 327.221 19.4651 324.838C19.4651 322.469 19.8564 320.654 20.639 319.393C21.4216 318.133 22.5536 317.502 24.0349 317.502ZM20.9534 324.838C20.9534 326.529 21.1072 327.852 21.4146 328.808L26.0683 319.601C25.5791 318.95 24.9013 318.624 24.0349 318.624C23.0706 318.624 22.316 319.137 21.771 320.162C21.2259 321.174 20.9534 322.732 20.9534 324.838ZM24.0349 331.052C25.0131 331.052 25.7748 330.546 26.3198 329.535C26.8648 328.51 27.1373 326.944 27.1373 324.838C27.1373 323.051 26.9627 321.665 26.6133 320.682L21.9596 329.971C22.4627 330.692 23.1545 331.052 24.0349 331.052Z" fill="url(#paint2_linear_175_1815)" fill-opacity="0.6"/>
<path d="M25.2926 354.637H28.3741V355.738H20.3874V354.637H23.9511V342.957L20.5551 344.973L19.9682 344.038L24.1607 341.461H25.2926V354.637Z" fill="url(#paint3_linear_175_1815)" fill-opacity="0.6"/>
<path d="M25.2926 378.388H28.3741V379.489H20.3874V378.388H23.9511V366.708L20.5551 368.724L19.9682 367.789L24.1607 365.212H25.2926V378.388Z" fill="url(#paint4_linear_175_1815)" fill-opacity="0.6"/>
<path d="M24.0349 388.755C25.5302 388.755 26.6622 389.386 27.4308 390.646C28.2134 391.893 28.6047 393.708 28.6047 396.091C28.6047 398.474 28.2134 400.296 27.4308 401.557C26.6622 402.818 25.5302 403.448 24.0349 403.448C22.5536 403.448 21.4216 402.818 20.639 401.557C19.8564 400.296 19.4651 398.474 19.4651 396.091C19.4651 393.722 19.8564 391.907 20.639 390.646C21.4216 389.386 22.5536 388.755 24.0349 388.755ZM20.9534 396.091C20.9534 397.782 21.1072 399.105 21.4146 400.061L26.0683 390.854C25.5791 390.203 24.9013 389.878 24.0349 389.878C23.0706 389.878 22.316 390.39 21.771 391.415C21.2259 392.427 20.9534 393.985 20.9534 396.091ZM24.0349 402.305C25.0131 402.305 25.7748 401.8 26.3198 400.788C26.8648 399.763 27.1373 398.197 27.1373 396.091C27.1373 394.304 26.9627 392.919 26.6133 391.935L21.9596 401.225C22.4627 401.945 23.1545 402.305 24.0349 402.305Z" fill="url(#paint5_linear_175_1815)" fill-opacity="0.6"/>
<path d="M25.2926 425.89H28.3741V426.992H20.3874V425.89H23.9511V414.21L20.5551 416.226L19.9682 415.291L24.1607 412.714H25.2926V425.89Z" fill="url(#paint6_linear_175_1815)" fill-opacity="0.6"/>
<path d="M24.0349 436.257C25.5302 436.257 26.6622 436.888 27.4308 438.149C28.2134 439.396 28.6047 441.211 28.6047 443.594C28.6047 445.977 28.2134 447.798 27.4308 449.059C26.6622 450.32 25.5302 450.95 24.0349 450.95C22.5536 450.95 21.4216 450.32 20.639 449.059C19.8564 447.798 19.4651 445.977 19.4651 443.594C19.4651 441.224 19.8564 439.409 20.639 438.149C21.4216 436.888 22.5536 436.257 24.0349 436.257ZM20.9534 443.594C20.9534 445.284 21.1072 446.607 21.4146 447.563L26.0683 438.356C25.5791 437.705 24.9013 437.38 24.0349 437.38C23.0706 437.38 22.316 437.892 21.771 438.918C21.2259 439.929 20.9534 441.488 20.9534 443.594ZM24.0349 449.807C25.0131 449.807 25.7748 449.302 26.3198 448.29C26.8648 447.265 27.1373 445.699 27.1373 443.594C27.1373 441.806 26.9627 440.421 26.6133 439.437L21.9596 448.727C22.4627 449.447 23.1545 449.807 24.0349 449.807Z" fill="url(#paint7_linear_175_1815)" fill-opacity="0.6"/>
<path d="M24.0349 460.008C25.5302 460.008 26.6622 460.639 27.4308 461.9C28.2134 463.147 28.6047 464.962 28.6047 467.345C28.6047 469.728 28.2134 471.549 27.4308 472.81C26.6622 474.071 25.5302 474.701 24.0349 474.701C22.5536 474.701 21.4216 474.071 20.639 472.81C19.8564 471.549 19.4651 469.728 19.4651 467.345C19.4651 464.975 19.8564 463.16 20.639 461.9C21.4216 460.639 22.5536 460.008 24.0349 460.008ZM20.9534 467.345C20.9534 469.035 21.1072 470.358 21.4146 471.314L26.0683 462.107C25.5791 461.456 24.9013 461.131 24.0349 461.131C23.0706 461.131 22.316 461.643 21.771 462.669C21.2259 463.68 20.9534 465.239 20.9534 467.345ZM24.0349 473.558C25.0131 473.558 25.7748 473.053 26.3198 472.041C26.8648 471.016 27.1373 469.451 27.1373 467.345C27.1373 465.557 26.9627 464.172 26.6133 463.188L21.9596 472.478C22.4627 473.198 23.1545 473.558 24.0349 473.558Z" fill="url(#paint8_linear_175_1815)" fill-opacity="0.6"/>
<path d="M25.2926 497.143H28.3741V498.245H20.3874V497.143H23.9511V485.464L20.5551 487.48L19.9682 486.544L24.1607 483.967H25.2926V497.143Z" fill="url(#paint9_linear_175_1815)" fill-opacity="0.6"/>
<path d="M24.0349 507.511C25.5302 507.511 26.6622 508.141 27.4308 509.402C28.2134 510.649 28.6047 512.464 28.6047 514.847C28.6047 517.23 28.2134 519.052 27.4308 520.312C26.6622 521.573 25.5302 522.204 24.0349 522.204C22.5536 522.204 21.4216 521.573 20.639 520.312C19.8564 519.052 19.4651 517.23 19.4651 514.847C19.4651 512.478 19.8564 510.663 20.639 509.402C21.4216 508.141 22.5536 507.511 24.0349 507.511ZM20.9534 514.847C20.9534 516.537 21.1072 517.86 21.4146 518.816L26.0683 509.61C25.5791 508.958 24.9013 508.633 24.0349 508.633C23.0706 508.633 22.316 509.145 21.771 510.171C21.2259 511.182 20.9534 512.741 20.9534 514.847ZM24.0349 521.061C25.0131 521.061 25.7748 520.555 26.3198 519.543C26.8648 518.518 27.1373 516.953 27.1373 514.847C27.1373 513.059 26.9627 511.674 26.6133 510.69L21.9596 519.98C22.4627 520.7 23.1545 521.061 24.0349 521.061Z" fill="url(#paint10_linear_175_1815)" fill-opacity="0.6"/>
<path d="M25.2926 544.645H28.3741V545.747H20.3874V544.645H23.9511V532.966L20.5551 534.982L19.9682 534.046L24.1607 531.469H25.2926V544.645Z" fill="url(#paint11_linear_175_1815)" fill-opacity="0.6"/>
<path d="M25.2926 568.396H28.3741V569.498H20.3874V568.396H23.9511V556.717L20.5551 558.733L19.9682 557.798L24.1607 555.221H25.2926V568.396Z" fill="url(#paint12_linear_175_1815)" fill-opacity="0.6"/>
<path d="M62.9651 317.502C64.4604 317.502 65.5924 318.133 66.361 319.393C67.1436 320.64 67.5349 322.455 67.5349 324.838C67.5349 327.221 67.1436 329.043 66.361 330.304C65.5924 331.565 64.4604 332.195 62.9651 332.195C61.4838 332.195 60.3518 331.565 59.5692 330.304C58.7866 329.043 58.3953 327.221 58.3953 324.838C58.3953 322.469 58.7866 320.654 59.5692 319.393C60.3518 318.133 61.4838 317.502 62.9651 317.502ZM59.8836 324.838C59.8836 326.529 60.0374 327.852 60.3448 328.808L64.9985 319.601C64.5093 318.95 63.8315 318.624 62.9651 318.624C62.0008 318.624 61.2462 319.137 60.7012 320.162C60.1561 321.174 59.8836 322.732 59.8836 324.838ZM62.9651 331.052C63.9433 331.052 64.705 330.546 65.25 329.535C65.795 328.51 66.0675 326.944 66.0675 324.838C66.0675 323.051 65.8928 321.665 65.5435 320.682L60.8898 329.971C61.3929 330.692 62.0847 331.052 62.9651 331.052Z" fill="url(#paint13_linear_175_1815)" fill-opacity="0.6"/>
<path d="M64.2228 354.637H67.3043V355.738H59.3176V354.637H62.8812V342.957L59.4853 344.973L58.8984 344.038L63.0909 341.461H64.2228V354.637Z" fill="url(#paint14_linear_175_1815)" fill-opacity="0.6"/>
<path d="M62.9651 365.004C64.4604 365.004 65.5924 365.635 66.361 366.895C67.1436 368.142 67.5349 369.957 67.5349 372.34C67.5349 374.723 67.1436 376.545 66.361 377.806C65.5924 379.067 64.4604 379.697 62.9651 379.697C61.4838 379.697 60.3518 379.067 59.5692 377.806C58.7866 376.545 58.3953 374.723 58.3953 372.34C58.3953 369.971 58.7866 368.156 59.5692 366.895C60.3518 365.635 61.4838 365.004 62.9651 365.004ZM59.8836 372.34C59.8836 374.031 60.0374 375.354 60.3448 376.31L64.9985 367.103C64.5093 366.452 63.8315 366.126 62.9651 366.126C62.0008 366.126 61.2462 366.639 60.7012 367.664C60.1561 368.676 59.8836 370.234 59.8836 372.34ZM62.9651 378.554C63.9433 378.554 64.705 378.049 65.25 377.037C65.795 376.012 66.0675 374.446 66.0675 372.34C66.0675 370.553 65.8928 369.168 65.5435 368.184L60.8898 377.474C61.3929 378.194 62.0847 378.554 62.9651 378.554Z" fill="url(#paint15_linear_175_1815)" fill-opacity="0.6"/>
<path d="M62.9651 388.755C64.4604 388.755 65.5924 389.386 66.361 390.646C67.1436 391.893 67.5349 393.708 67.5349 396.091C67.5349 398.474 67.1436 400.296 66.361 401.557C65.5924 402.818 64.4604 403.448 62.9651 403.448C61.4838 403.448 60.3518 402.818 59.5692 401.557C58.7866 400.296 58.3953 398.474 58.3953 396.091C58.3953 393.722 58.7866 391.907 59.5692 390.646C60.3518 389.386 61.4838 388.755 62.9651 388.755ZM59.8836 396.091C59.8836 397.782 60.0374 399.105 60.3448 400.061L64.9985 390.854C64.5093 390.203 63.8315 389.878 62.9651 389.878C62.0008 389.878 61.2462 390.39 60.7012 391.415C60.1561 392.427 59.8836 393.985 59.8836 396.091ZM62.9651 402.305C63.9433 402.305 64.705 401.8 65.25 400.788C65.795 399.763 66.0675 398.197 66.0675 396.091C66.0675 394.304 65.8928 392.919 65.5435 391.935L60.8898 401.225C61.3929 401.945 62.0847 402.305 62.9651 402.305Z" fill="url(#paint16_linear_175_1815)" fill-opacity="0.6"/>
<path d="M64.2228 425.89H67.3043V426.992H59.3176V425.89H62.8812V414.21L59.4853 416.226L58.8984 415.291L63.0909 412.714H64.2228V425.89Z" fill="url(#paint17_linear_175_1815)" fill-opacity="0.6"/>
<path d="M62.9651 436.257C64.4604 436.257 65.5924 436.888 66.361 438.149C67.1436 439.396 67.5349 441.211 67.5349 443.594C67.5349 445.977 67.1436 447.798 66.361 449.059C65.5924 450.32 64.4604 450.95 62.9651 450.95C61.4838 450.95 60.3518 450.32 59.5692 449.059C58.7866 447.798 58.3953 445.977 58.3953 443.594C58.3953 441.224 58.7866 439.409 59.5692 438.149C60.3518 436.888 61.4838 436.257 62.9651 436.257ZM59.8836 443.594C59.8836 445.284 60.0374 446.607 60.3448 447.563L64.9985 438.356C64.5093 437.705 63.8315 437.38 62.9651 437.38C62.0008 437.38 61.2462 437.892 60.7012 438.918C60.1561 439.929 59.8836 441.488 59.8836 443.594ZM62.9651 449.807C63.9433 449.807 64.705 449.302 65.25 448.29C65.795 447.265 66.0675 445.699 66.0675 443.594C66.0675 441.806 65.8928 440.421 65.5435 439.437L60.8898 448.727C61.3929 449.447 62.0847 449.807 62.9651 449.807Z" fill="url(#paint18_linear_175_1815)" fill-opacity="0.6"/>
<path d="M64.2228 473.392H67.3043V474.494H59.3176V473.392H62.8812V461.713L59.4853 463.728L58.8984 462.793L63.0909 460.216H64.2228V473.392Z" fill="url(#paint19_linear_175_1815)" fill-opacity="0.6"/>
<path d="M62.9651 483.76C64.4604 483.76 65.5924 484.39 66.361 485.651C67.1436 486.898 67.5349 488.713 67.5349 491.096C67.5349 493.479 67.1436 495.301 66.361 496.561C65.5924 497.822 64.4604 498.453 62.9651 498.453C61.4838 498.453 60.3518 497.822 59.5692 496.561C58.7866 495.301 58.3953 493.479 58.3953 491.096C58.3953 488.726 58.7866 486.911 59.5692 485.651C60.3518 484.39 61.4838 483.76 62.9651 483.76ZM59.8836 491.096C59.8836 492.786 60.0374 494.109 60.3448 495.065L64.9985 485.859C64.5093 485.207 63.8315 484.882 62.9651 484.882C62.0008 484.882 61.2462 485.394 60.7012 486.42C60.1561 487.431 59.8836 488.99 59.8836 491.096ZM62.9651 497.31C63.9433 497.31 64.705 496.804 65.25 495.792C65.795 494.767 66.0675 493.202 66.0675 491.096C66.0675 489.308 65.8928 487.923 65.5435 486.939L60.8898 496.229C61.3929 496.949 62.0847 497.31 62.9651 497.31Z" fill="url(#paint20_linear_175_1815)" fill-opacity="0.6"/>
<path d="M62.9651 507.511C64.4604 507.511 65.5924 508.141 66.361 509.402C67.1436 510.649 67.5349 512.464 67.5349 514.847C67.5349 517.23 67.1436 519.052 66.361 520.312C65.5924 521.573 64.4604 522.204 62.9651 522.204C61.4838 522.204 60.3518 521.573 59.5692 520.312C58.7866 519.052 58.3953 517.23 58.3953 514.847C58.3953 512.478 58.7866 510.663 59.5692 509.402C60.3518 508.141 61.4838 507.511 62.9651 507.511ZM59.8836 514.847C59.8836 516.537 60.0374 517.86 60.3448 518.816L64.9985 509.61C64.5093 508.958 63.8315 508.633 62.9651 508.633C62.0008 508.633 61.2462 509.145 60.7012 510.171C60.1561 511.182 59.8836 512.741 59.8836 514.847ZM62.9651 521.061C63.9433 521.061 64.705 520.555 65.25 519.543C65.795 518.518 66.0675 516.953 66.0675 514.847C66.0675 513.059 65.8928 511.674 65.5435 510.69L60.8898 519.98C61.3929 520.7 62.0847 521.061 62.9651 521.061Z" fill="url(#paint21_linear_175_1815)" fill-opacity="0.6"/>
<path d="M64.2228 544.645H67.3043V545.747H59.3176V544.645H62.8812V532.966L59.4853 534.982L58.8984 534.046L63.0909 531.469H64.2228V544.645Z" fill="url(#paint22_linear_175_1815)" fill-opacity="0.6"/>
<path d="M62.9651 555.013C64.4604 555.013 65.5924 555.643 66.361 556.904C67.1436 558.151 67.5349 559.966 67.5349 562.349C67.5349 564.732 67.1436 566.554 66.361 567.815C65.5924 569.075 64.4604 569.706 62.9651 569.706C61.4838 569.706 60.3518 569.075 59.5692 567.815C58.7866 566.554 58.3953 564.732 58.3953 562.349C58.3953 559.98 58.7866 558.165 59.5692 556.904C60.3518 555.643 61.4838 555.013 62.9651 555.013ZM59.8836 562.349C59.8836 564.039 60.0374 565.362 60.3448 566.318L64.9985 557.112C64.5093 556.461 63.8315 556.135 62.9651 556.135C62.0008 556.135 61.2462 556.648 60.7012 557.673C60.1561 558.684 59.8836 560.243 59.8836 562.349ZM62.9651 568.563C63.9433 568.563 64.705 568.057 65.25 567.046C65.795 566.02 66.0675 564.455 66.0675 562.349C66.0675 560.562 65.8928 559.176 65.5435 558.192L60.8898 567.482C61.3929 568.202 62.0847 568.563 62.9651 568.563Z" fill="url(#paint23_linear_175_1815)" fill-opacity="0.6"/>
<path d="M64.2228 592.147H67.3043V593.249H59.3176V592.147H62.8812V580.468L59.4853 582.484L58.8984 581.549L63.0909 578.972H64.2228V592.147Z" fill="url(#paint24_linear_175_1815)" fill-opacity="0.6"/>
<path d="M64.2228 615.899H67.3043V617H59.3176V615.899H62.8812V604.219L59.4853 606.235L58.8984 605.3L63.0909 602.723H64.2228V615.899Z" fill="url(#paint25_linear_175_1815)" fill-opacity="0.6"/>
<path d="M4.56981 341.253C6.06512 341.253 7.1971 341.884 7.96572 343.144C8.74831 344.391 9.13961 346.206 9.13961 348.589C9.13961 350.972 8.74831 352.794 7.96572 354.055C7.1971 355.316 6.06512 355.946 4.56981 355.946C3.08846 355.946 1.95649 355.316 1.1739 354.055C0.391299 352.794 0 350.972 0 348.589C0 346.22 0.391299 344.405 1.1739 343.144C1.95649 341.884 3.08846 341.253 4.56981 341.253ZM1.48833 348.589C1.48833 350.28 1.64206 351.603 1.9495 352.559L6.60316 343.352C6.11404 342.701 5.43625 342.375 4.56981 342.375C3.60553 342.375 2.85089 342.888 2.30587 343.913C1.76084 344.925 1.48833 346.483 1.48833 348.589ZM4.56981 354.803C5.54805 354.803 6.30969 354.297 6.85471 353.286C7.39973 352.261 7.67224 350.695 7.67224 348.589C7.67224 346.802 7.49756 345.417 7.14818 344.433L2.49453 353.722C2.99763 354.443 3.68938 354.803 4.56981 354.803Z" fill="url(#paint26_linear_175_1815)" fill-opacity="0.6"/>
<path d="M4.56981 365.004C6.06512 365.004 7.1971 365.635 7.96572 366.895C8.74831 368.142 9.13961 369.957 9.13961 372.34C9.13961 374.723 8.74831 376.545 7.96572 377.806C7.1971 379.067 6.06512 379.697 4.56981 379.697C3.08846 379.697 1.95649 379.067 1.1739 377.806C0.391299 376.545 0 374.723 0 372.34C0 369.971 0.391299 368.156 1.1739 366.895C1.95649 365.635 3.08846 365.004 4.56981 365.004ZM1.48833 372.34C1.48833 374.031 1.64206 375.354 1.9495 376.31L6.60316 367.103C6.11404 366.452 5.43625 366.126 4.56981 366.126C3.60553 366.126 2.85089 366.639 2.30587 367.664C1.76084 368.676 1.48833 370.234 1.48833 372.34ZM4.56981 378.554C5.54805 378.554 6.30969 378.049 6.85471 377.037C7.39973 376.012 7.67224 374.446 7.67224 372.34C7.67224 370.553 7.49756 369.168 7.14818 368.184L2.49453 377.474C2.99763 378.194 3.68938 378.554 4.56981 378.554Z" fill="url(#paint27_linear_175_1815)" fill-opacity="0.6"/>
<path d="M5.82755 402.139H8.90903V403.24H0.922346V402.139H4.48596V390.459L1.09005 392.475L0.503098 391.54L4.69558 388.963H5.82755V402.139Z" fill="url(#paint28_linear_175_1815)" fill-opacity="0.6"/>
<path d="M4.56981 412.506C6.06512 412.506 7.1971 413.137 7.96572 414.398C8.74831 415.644 9.13961 417.459 9.13961 419.842C9.13961 422.225 8.74831 424.047 7.96572 425.308C7.1971 426.569 6.06512 427.199 4.56981 427.199C3.08846 427.199 1.95649 426.569 1.1739 425.308C0.391299 424.047 0 422.225 0 419.842C0 417.473 0.391299 415.658 1.1739 414.398C1.95649 413.137 3.08846 412.506 4.56981 412.506ZM1.48833 419.842C1.48833 421.533 1.64206 422.856 1.9495 423.812L6.60316 414.605C6.11404 413.954 5.43625 413.629 4.56981 413.629C3.60553 413.629 2.85089 414.141 2.30587 415.166C1.76084 416.178 1.48833 417.737 1.48833 419.842ZM4.56981 426.056C5.54805 426.056 6.30969 425.551 6.85471 424.539C7.39973 423.514 7.67224 421.948 7.67224 419.842C7.67224 418.055 7.49756 416.67 7.14818 415.686L2.49453 424.976C2.99763 425.696 3.68938 426.056 4.56981 426.056Z" fill="url(#paint29_linear_175_1815)" fill-opacity="0.6"/>
<path d="M5.82755 449.641H8.90903V450.743H0.922346V449.641H4.48596V437.962L1.09005 439.977L0.503098 439.042L4.69558 436.465H5.82755V449.641Z" fill="url(#paint30_linear_175_1815)" fill-opacity="0.6"/>
<path d="M5.82755 473.392H8.90903V474.494H0.922346V473.392H4.48596V461.713L1.09005 463.728L0.503098 462.793L4.69558 460.216H5.82755V473.392Z" fill="url(#paint31_linear_175_1815)" fill-opacity="0.6"/>
<path d="M44.7577 307.135H47.8392V308.236H39.8525V307.135H43.4162V295.455L40.0202 297.471L39.4333 296.536L43.6258 293.959H44.7577V307.135Z" fill="url(#paint32_linear_175_1815)" fill-opacity="0.6"/>
<path d="M43.5 317.502C44.9953 317.502 46.1273 318.133 46.8959 319.393C47.6785 320.64 48.0698 322.455 48.0698 324.838C48.0698 327.221 47.6785 329.043 46.8959 330.304C46.1273 331.565 44.9953 332.195 43.5 332.195C42.0187 332.195 40.8867 331.565 40.1041 330.304C39.3215 329.043 38.9302 327.221 38.9302 324.838C38.9302 322.469 39.3215 320.654 40.1041 319.393C40.8867 318.133 42.0187 317.502 43.5 317.502ZM40.4185 324.838C40.4185 326.529 40.5723 327.852 40.8797 328.808L45.5334 319.601C45.0442 318.95 44.3664 318.624 43.5 318.624C42.5357 318.624 41.7811 319.137 41.2361 320.162C40.691 321.174 40.4185 322.732 40.4185 324.838ZM43.5 331.052C44.4782 331.052 45.2399 330.546 45.7849 329.535C46.3299 328.51 46.6024 326.944 46.6024 324.838C46.6024 323.051 46.4277 321.665 46.0784 320.682L41.4247 329.971C41.9278 330.692 42.6196 331.052 43.5 331.052Z" fill="url(#paint33_linear_175_1815)" fill-opacity="0.6"/>
<path d="M44.7577 354.637H47.8392V355.738H39.8525V354.637H43.4162V342.957L40.0202 344.973L39.4333 344.038L43.6258 341.461H44.7577V354.637Z" fill="url(#paint34_linear_175_1815)" fill-opacity="0.6"/>
<path d="M44.7577 378.388H47.8392V379.489H39.8525V378.388H43.4162V366.708L40.0202 368.724L39.4333 367.789L43.6258 365.212H44.7577V378.388Z" fill="url(#paint35_linear_175_1815)" fill-opacity="0.6"/>
<path d="M43.5 388.755C44.9953 388.755 46.1273 389.386 46.8959 390.646C47.6785 391.893 48.0698 393.708 48.0698 396.091C48.0698 398.474 47.6785 400.296 46.8959 401.557C46.1273 402.818 44.9953 403.448 43.5 403.448C42.0187 403.448 40.8867 402.818 40.1041 401.557C39.3215 400.296 38.9302 398.474 38.9302 396.091C38.9302 393.722 39.3215 391.907 40.1041 390.646C40.8867 389.386 42.0187 388.755 43.5 388.755ZM40.4185 396.091C40.4185 397.782 40.5723 399.105 40.8797 400.061L45.5334 390.854C45.0442 390.203 44.3664 389.878 43.5 389.878C42.5357 389.878 41.7811 390.39 41.2361 391.415C40.691 392.427 40.4185 393.985 40.4185 396.091ZM43.5 402.305C44.4782 402.305 45.2399 401.8 45.7849 400.788C46.3299 399.763 46.6024 398.197 46.6024 396.091C46.6024 394.304 46.4277 392.919 46.0784 391.935L41.4247 401.225C41.9278 401.945 42.6196 402.305 43.5 402.305Z" fill="url(#paint36_linear_175_1815)" fill-opacity="0.6"/>
<path d="M44.7577 425.89H47.8392V426.992H39.8525V425.89H43.4162V414.21L40.0202 416.226L39.4333 415.291L43.6258 412.714H44.7577V425.89Z" fill="url(#paint37_linear_175_1815)" fill-opacity="0.6"/>
<path d="M44.7577 449.641H47.8392V450.743H39.8525V449.641H43.4162V437.962L40.0202 439.977L39.4333 439.042L43.6258 436.465H44.7577V449.641Z" fill="url(#paint38_linear_175_1815)" fill-opacity="0.6"/>
<path d="M43.5 460.008C44.9953 460.008 46.1273 460.639 46.8959 461.9C47.6785 463.147 48.0698 464.962 48.0698 467.345C48.0698 469.728 47.6785 471.549 46.8959 472.81C46.1273 474.071 44.9953 474.701 43.5 474.701C42.0187 474.701 40.8867 474.071 40.1041 472.81C39.3215 471.549 38.9302 469.728 38.9302 467.345C38.9302 464.975 39.3215 463.16 40.1041 461.9C40.8867 460.639 42.0187 460.008 43.5 460.008ZM40.4185 467.345C40.4185 469.035 40.5723 470.358 40.8797 471.314L45.5334 462.107C45.0442 461.456 44.3664 461.131 43.5 461.131C42.5357 461.131 41.7811 461.643 41.2361 462.669C40.691 463.68 40.4185 465.239 40.4185 467.345ZM43.5 473.558C44.4782 473.558 45.2399 473.053 45.7849 472.041C46.3299 471.016 46.6024 469.451 46.6024 467.345C46.6024 465.557 46.4277 464.172 46.0784 463.188L41.4247 472.478C41.9278 473.198 42.6196 473.558 43.5 473.558Z" fill="url(#paint39_linear_175_1815)" fill-opacity="0.6"/>
<path d="M44.7577 497.143H47.8392V498.245H39.8525V497.143H43.4162V485.464L40.0202 487.48L39.4333 486.544L43.6258 483.967H44.7577V497.143Z" fill="url(#paint40_linear_175_1815)" fill-opacity="0.6"/>
<path d="M43.5 507.511C44.9953 507.511 46.1273 508.141 46.8959 509.402C47.6785 510.649 48.0698 512.464 48.0698 514.847C48.0698 517.23 47.6785 519.052 46.8959 520.312C46.1273 521.573 44.9953 522.204 43.5 522.204C42.0187 522.204 40.8867 521.573 40.1041 520.312C39.3215 519.052 38.9302 517.23 38.9302 514.847C38.9302 512.478 39.3215 510.663 40.1041 509.402C40.8867 508.141 42.0187 507.511 43.5 507.511ZM40.4185 514.847C40.4185 516.537 40.5723 517.86 40.8797 518.816L45.5334 509.61C45.0442 508.958 44.3664 508.633 43.5 508.633C42.5357 508.633 41.7811 509.145 41.2361 510.171C40.691 511.182 40.4185 512.741 40.4185 514.847ZM43.5 521.061C44.4782 521.061 45.2399 520.555 45.7849 519.543C46.3299 518.518 46.6024 516.953 46.6024 514.847C46.6024 513.059 46.4277 511.674 46.0784 510.69L41.4247 519.98C41.9278 520.7 42.6196 521.061 43.5 521.061Z" fill="url(#paint41_linear_175_1815)" fill-opacity="0.6"/>
<path d="M82.4302 293.751C83.9255 293.751 85.0575 294.381 85.8261 295.642C86.6087 296.889 87 298.704 87 301.087C87 303.47 86.6087 305.292 85.8261 306.553C85.0575 307.814 83.9255 308.444 82.4302 308.444C80.9489 308.444 79.8169 307.814 79.0343 306.553C78.2517 305.292 77.8604 303.47 77.8604 301.087C77.8604 298.718 78.2517 296.903 79.0343 295.642C79.8169 294.381 80.9489 293.751 82.4302 293.751ZM79.3487 301.087C79.3487 302.777 79.5024 304.101 79.8099 305.057L84.4636 295.85C83.9744 295.199 83.2966 294.873 82.4302 294.873C81.4659 294.873 80.7113 295.386 80.1663 296.411C79.6212 297.423 79.3487 298.981 79.3487 301.087ZM82.4302 307.301C83.4084 307.301 84.1701 306.795 84.7151 305.784C85.2601 304.759 85.5326 303.193 85.5326 301.087C85.5326 299.3 85.3579 297.914 85.0086 296.931L80.3549 306.22C80.858 306.941 81.5498 307.301 82.4302 307.301Z" fill="url(#paint42_linear_175_1815)" fill-opacity="0.6"/>
<path d="M83.6879 330.886H86.7694V331.987H78.7827V330.886H82.3463V319.206L78.9504 321.222L78.3635 320.287L82.556 317.71H83.6879V330.886Z" fill="url(#paint43_linear_175_1815)" fill-opacity="0.6"/>
<path d="M83.6879 354.637H86.7694V355.738H78.7827V354.637H82.3463V342.957L78.9504 344.973L78.3635 344.038L82.556 341.461H83.6879V354.637Z" fill="url(#paint44_linear_175_1815)" fill-opacity="0.6"/>
<path d="M82.4302 365.004C83.9255 365.004 85.0575 365.635 85.8261 366.895C86.6087 368.142 87 369.957 87 372.34C87 374.723 86.6087 376.545 85.8261 377.806C85.0575 379.067 83.9255 379.697 82.4302 379.697C80.9489 379.697 79.8169 379.067 79.0343 377.806C78.2517 376.545 77.8604 374.723 77.8604 372.34C77.8604 369.971 78.2517 368.156 79.0343 366.895C79.8169 365.635 80.9489 365.004 82.4302 365.004ZM79.3487 372.34C79.3487 374.031 79.5024 375.354 79.8099 376.31L84.4636 367.103C83.9744 366.452 83.2966 366.126 82.4302 366.126C81.4659 366.126 80.7113 366.639 80.1663 367.664C79.6212 368.676 79.3487 370.234 79.3487 372.34ZM82.4302 378.554C83.4084 378.554 84.1701 378.049 84.7151 377.037C85.2601 376.012 85.5326 374.446 85.5326 372.34C85.5326 370.553 85.3579 369.168 85.0086 368.184L80.3549 377.474C80.858 378.194 81.5498 378.554 82.4302 378.554Z" fill="url(#paint45_linear_175_1815)" fill-opacity="0.6"/>
<path d="M82.4302 388.755C83.9255 388.755 85.0575 389.386 85.8261 390.646C86.6087 391.893 87 393.708 87 396.091C87 398.474 86.6087 400.296 85.8261 401.557C85.0575 402.818 83.9255 403.448 82.4302 403.448C80.9489 403.448 79.8169 402.818 79.0343 401.557C78.2517 400.296 77.8604 398.474 77.8604 396.091C77.8604 393.722 78.2517 391.907 79.0343 390.646C79.8169 389.386 80.9489 388.755 82.4302 388.755ZM79.3487 396.091C79.3487 397.782 79.5024 399.105 79.8099 400.061L84.4636 390.854C83.9744 390.203 83.2966 389.878 82.4302 389.878C81.4659 389.878 80.7113 390.39 80.1663 391.415C79.6212 392.427 79.3487 393.985 79.3487 396.091ZM82.4302 402.305C83.4084 402.305 84.1701 401.8 84.7151 400.788C85.2601 399.763 85.5326 398.197 85.5326 396.091C85.5326 394.304 85.3579 392.919 85.0086 391.935L80.3549 401.225C80.858 401.945 81.5498 402.305 82.4302 402.305Z" fill="url(#paint46_linear_175_1815)" fill-opacity="0.6"/>
<g opacity="0.6">
<path d="M910.93 -30C912.356 -30 913.436 -29.395 914.17 -28.1851C914.916 -26.9885 915.29 -25.2468 915.29 -22.9599C915.29 -20.673 914.916 -18.9246 914.17 -17.7147C913.436 -16.5048 912.356 -15.8998 910.93 -15.8998C909.517 -15.8998 908.437 -16.5048 907.69 -17.7147C906.943 -18.9246 906.57 -20.673 906.57 -22.9599C906.57 -25.2335 906.943 -26.9752 907.69 -28.1851C908.437 -29.395 909.517 -30 910.93 -30ZM907.99 -22.9599C907.99 -21.3378 908.137 -20.068 908.43 -19.1506L912.87 -27.9857C912.403 -28.6106 911.756 -28.923 910.93 -28.923C910.01 -28.923 909.29 -28.4311 908.77 -27.4472C908.25 -26.4766 907.99 -24.9808 907.99 -22.9599ZM910.93 -16.9967C911.863 -16.9967 912.59 -17.482 913.11 -18.4526C913.63 -19.4365 913.89 -20.9389 913.89 -22.9599C913.89 -24.675 913.723 -26.0046 913.39 -26.9486L908.95 -18.0338C909.43 -17.3424 910.09 -16.9967 910.93 -16.9967Z" fill="url(#paint47_linear_175_1815)"/>
<path d="M912.13 5.63655H915.07V6.69356H907.45V5.63655H910.85V-5.57181L907.61 -3.63727L907.05 -4.53474L911.05 -7.00776H912.13V5.63655Z" fill="url(#paint48_linear_175_1815)"/>
<path d="M910.93 15.5856C912.356 15.5856 913.436 16.1906 914.17 17.4005C914.916 18.5971 915.29 20.3389 915.29 22.6257C915.29 24.9126 914.916 26.661 914.17 27.8709C913.436 29.0808 912.356 29.6858 910.93 29.6858C909.517 29.6858 908.437 29.0808 907.69 27.8709C906.943 26.661 906.57 24.9126 906.57 22.6257C906.57 20.3521 906.943 18.6104 907.69 17.4005C908.437 16.1906 909.517 15.5856 910.93 15.5856ZM907.99 22.6257C907.99 24.2478 908.137 25.5176 908.43 26.435L912.87 17.5999C912.403 16.975 911.756 16.6626 910.93 16.6626C910.01 16.6626 909.29 17.1545 908.77 18.1384C908.25 19.109 907.99 20.6048 907.99 22.6257ZM910.93 28.5889C911.863 28.5889 912.59 28.1036 913.11 27.133C913.63 26.1491 913.89 24.6467 913.89 22.6257C913.89 20.9106 913.723 19.581 913.39 18.637L908.95 27.5518C909.43 28.2432 910.09 28.5889 910.93 28.5889Z" fill="url(#paint49_linear_175_1815)"/>
<path d="M912.13 51.2221H915.07V52.2792H907.45V51.2221H910.85V40.0138L907.61 41.9483L907.05 41.0509L911.05 38.5778H912.13V51.2221Z" fill="url(#paint50_linear_175_1815)"/>
<path d="M912.13 74.015H915.07V75.072H907.45V74.015H910.85V62.8066L907.61 64.7411L907.05 63.8437L911.05 61.3706H912.13V74.015Z" fill="url(#paint51_linear_175_1815)"/>
<path d="M910.93 83.964C912.356 83.964 913.436 84.569 914.17 85.7789C914.916 86.9755 915.29 88.7173 915.29 91.0041C915.29 93.291 914.916 95.0394 914.17 96.2493C913.436 97.4593 912.356 98.0642 910.93 98.0642C909.517 98.0642 908.437 97.4593 907.69 96.2493C906.943 95.0394 906.57 93.291 906.57 91.0041C906.57 88.7306 906.943 86.9888 907.69 85.7789C908.437 84.569 909.517 83.964 910.93 83.964ZM907.99 91.0041C907.99 92.6262 908.137 93.896 908.43 94.8134L912.87 85.9783C912.403 85.3534 911.756 85.041 910.93 85.041C910.01 85.041 909.29 85.5329 908.77 86.5168C908.25 87.4874 907.99 88.9832 907.99 91.0041ZM910.93 96.9673C911.863 96.9673 912.59 96.482 913.11 95.5114C913.63 94.5275 913.89 93.0251 913.89 91.0041C913.89 89.289 913.723 87.9594 913.39 87.0154L908.95 95.9302C909.43 96.6216 910.09 96.9673 910.93 96.9673Z" fill="url(#paint52_linear_175_1815)"/>
<path d="M912.13 119.601H915.07V120.658H907.45V119.601H910.85V108.392L907.61 110.327L907.05 109.429L911.05 106.956H912.13V119.601Z" fill="url(#paint53_linear_175_1815)"/>
<path d="M910.93 129.55C912.356 129.55 913.436 130.155 914.17 131.365C914.916 132.561 915.29 134.303 915.29 136.59C915.29 138.877 914.916 140.625 914.17 141.835C913.436 143.045 912.356 143.65 910.93 143.65C909.517 143.65 908.437 143.045 907.69 141.835C906.943 140.625 906.57 138.877 906.57 136.59C906.57 134.316 906.943 132.574 907.69 131.365C908.437 130.155 909.517 129.55 910.93 129.55ZM907.99 136.59C907.99 138.212 908.137 139.482 908.43 140.399L912.87 131.564C912.403 130.939 911.756 130.627 910.93 130.627C910.01 130.627 909.29 131.119 908.77 132.102C908.25 133.073 907.99 134.569 907.99 136.59ZM910.93 142.553C911.863 142.553 912.59 142.068 913.11 141.097C913.63 140.113 913.89 138.611 913.89 136.59C913.89 134.875 913.723 133.545 913.39 132.601L908.95 141.516C909.43 142.207 910.09 142.553 910.93 142.553Z" fill="url(#paint54_linear_175_1815)"/>
<path d="M910.93 152.342C912.356 152.342 913.436 152.947 914.17 154.157C914.916 155.354 915.29 157.096 915.29 159.383C915.29 161.669 914.916 163.418 914.17 164.628C913.436 165.838 912.356 166.443 910.93 166.443C909.517 166.443 908.437 165.838 907.69 164.628C906.943 163.418 906.57 161.669 906.57 159.383C906.57 157.109 906.943 155.367 907.69 154.157C908.437 152.947 909.517 152.342 910.93 152.342ZM907.99 159.383C907.99 161.005 908.137 162.274 908.43 163.192L912.87 154.357C912.403 153.732 911.756 153.419 910.93 153.419C910.01 153.419 909.29 153.911 908.77 154.895C908.25 155.866 907.99 157.362 907.99 159.383ZM910.93 165.346C911.863 165.346 912.59 164.86 913.11 163.89C913.63 162.906 913.89 161.404 913.89 159.383C913.89 157.667 913.723 156.338 913.39 155.394L908.95 164.309C909.43 165 910.09 165.346 910.93 165.346Z" fill="url(#paint55_linear_175_1815)"/>
<path d="M912.13 187.979H915.07V189.036H907.45V187.979H910.85V176.771L907.61 178.705L907.05 177.808L911.05 175.335H912.13V187.979Z" fill="url(#paint56_linear_175_1815)"/>
<path d="M910.93 197.928C912.356 197.928 913.436 198.533 914.17 199.743C914.916 200.94 915.29 202.681 915.29 204.968C915.29 207.255 914.916 209.003 914.17 210.213C913.436 211.423 912.356 212.028 910.93 212.028C909.517 212.028 908.437 211.423 907.69 210.213C906.943 209.003 906.57 207.255 906.57 204.968C906.57 202.695 906.943 200.953 907.69 199.743C908.437 198.533 909.517 197.928 910.93 197.928ZM907.99 204.968C907.99 206.59 908.137 207.86 908.43 208.777L912.87 199.942C912.403 199.317 911.756 199.005 910.93 199.005C910.01 199.005 909.29 199.497 908.77 200.481C908.25 201.451 907.99 202.947 907.99 204.968ZM910.93 210.931C911.863 210.931 912.59 210.446 913.11 209.475C913.63 208.492 913.89 206.989 913.89 204.968C913.89 203.253 913.723 201.923 913.39 200.979L908.95 209.894C909.43 210.586 910.09 210.931 910.93 210.931Z" fill="url(#paint57_linear_175_1815)"/>
<path d="M912.13 233.565H915.07V234.622H907.45V233.565H910.85V222.356L907.61 224.291L907.05 223.393L911.05 220.92H912.13V233.565Z" fill="url(#paint58_linear_175_1815)"/>
<path d="M912.13 256.357H915.07V257.414H907.45V256.357H910.85V245.149L907.61 247.084L907.05 246.186L911.05 243.713H912.13V256.357Z" fill="url(#paint59_linear_175_1815)"/>
<path d="M948.07 15.5856C949.497 15.5856 950.577 16.1906 951.31 17.4005C952.057 18.5971 952.43 20.3389 952.43 22.6257C952.43 24.9126 952.057 26.661 951.31 27.8709C950.577 29.0808 949.497 29.6858 948.07 29.6858C946.657 29.6858 945.577 29.0808 944.83 27.8709C944.084 26.661 943.71 24.9126 943.71 22.6257C943.71 20.3521 944.084 18.6104 944.83 17.4005C945.577 16.1906 946.657 15.5856 948.07 15.5856ZM945.13 22.6257C945.13 24.2478 945.277 25.5176 945.57 26.435L950.01 17.5999C949.543 16.975 948.897 16.6626 948.07 16.6626C947.15 16.6626 946.43 17.1545 945.91 18.1384C945.39 19.109 945.13 20.6048 945.13 22.6257ZM948.07 28.5889C949.003 28.5889 949.73 28.1036 950.25 27.133C950.77 26.1491 951.03 24.6467 951.03 22.6257C951.03 20.9106 950.863 19.581 950.53 18.637L946.09 27.5518C946.57 28.2432 947.23 28.5889 948.07 28.5889Z" fill="url(#paint60_linear_175_1815)"/>
<path d="M949.27 51.2221H952.21V52.2792H944.59V51.2221H947.99V40.0138L944.75 41.9483L944.19 41.0509L948.19 38.5778H949.27V51.2221Z" fill="url(#paint61_linear_175_1815)"/>
<path d="M948.07 61.1712C949.497 61.1712 950.577 61.7762 951.31 62.9861C952.057 64.1827 952.43 65.9245 952.43 68.2113C952.43 70.4982 952.057 72.2466 951.31 73.4565C950.577 74.6665 949.497 75.2714 948.07 75.2714C946.657 75.2714 945.577 74.6665 944.83 73.4565C944.084 72.2466 943.71 70.4982 943.71 68.2113C943.71 65.9378 944.084 64.196 944.83 62.9861C945.577 61.7762 946.657 61.1712 948.07 61.1712ZM945.13 68.2113C945.13 69.8334 945.277 71.1032 945.57 72.0206L950.01 63.1855C949.543 62.5606 948.897 62.2482 948.07 62.2482C947.15 62.2482 946.43 62.7401 945.91 63.724C945.39 64.6946 945.13 66.1904 945.13 68.2113ZM948.07 74.1745C949.003 74.1745 949.73 73.6892 950.25 72.7186C950.77 71.7347 951.03 70.2323 951.03 68.2113C951.03 66.4962 950.863 65.1666 950.53 64.2226L946.09 73.1374C946.57 73.8288 947.23 74.1745 948.07 74.1745Z" fill="url(#paint62_linear_175_1815)"/>
<path d="M948.07 83.964C949.497 83.964 950.577 84.569 951.31 85.7789C952.057 86.9755 952.43 88.7173 952.43 91.0041C952.43 93.291 952.057 95.0394 951.31 96.2493C950.577 97.4593 949.497 98.0642 948.07 98.0642C946.657 98.0642 945.577 97.4593 944.83 96.2493C944.084 95.0394 943.71 93.291 943.71 91.0041C943.71 88.7306 944.084 86.9888 944.83 85.7789C945.577 84.569 946.657 83.964 948.07 83.964ZM945.13 91.0041C945.13 92.6262 945.277 93.896 945.57 94.8134L950.01 85.9783C949.543 85.3534 948.897 85.041 948.07 85.041C947.15 85.041 946.43 85.5329 945.91 86.5168C945.39 87.4874 945.13 88.9832 945.13 91.0041ZM948.07 96.9673C949.003 96.9673 949.73 96.482 950.25 95.5114C950.77 94.5275 951.03 93.0251 951.03 91.0041C951.03 89.289 950.863 87.9594 950.53 87.0154L946.09 95.9302C946.57 96.6216 947.23 96.9673 948.07 96.9673Z" fill="url(#paint63_linear_175_1815)"/>
<path d="M949.27 119.601H952.21V120.658H944.59V119.601H947.99V108.392L944.75 110.327L944.19 109.429L948.19 106.956H949.27V119.601Z" fill="url(#paint64_linear_175_1815)"/>
<path d="M948.07 129.55C949.497 129.55 950.577 130.155 951.31 131.365C952.057 132.561 952.43 134.303 952.43 136.59C952.43 138.877 952.057 140.625 951.31 141.835C950.577 143.045 949.497 143.65 948.07 143.65C946.657 143.65 945.577 143.045 944.83 141.835C944.084 140.625 943.71 138.877 943.71 136.59C943.71 134.316 944.084 132.574 944.83 131.365C945.577 130.155 946.657 129.55 948.07 129.55ZM945.13 136.59C945.13 138.212 945.277 139.482 945.57 140.399L950.01 131.564C949.543 130.939 948.897 130.627 948.07 130.627C947.15 130.627 946.43 131.119 945.91 132.102C945.39 133.073 945.13 134.569 945.13 136.59ZM948.07 142.553C949.003 142.553 949.73 142.068 950.25 141.097C950.77 140.113 951.03 138.611 951.03 136.59C951.03 134.875 950.863 133.545 950.53 132.601L946.09 141.516C946.57 142.207 947.23 142.553 948.07 142.553Z" fill="url(#paint65_linear_175_1815)"/>
<path d="M949.27 165.186H952.21V166.243H944.59V165.186H947.99V153.978L944.75 155.912L944.19 155.015L948.19 152.542H949.27V165.186Z" fill="url(#paint66_linear_175_1815)"/>
<path d="M948.07 175.135C949.497 175.135 950.577 175.74 951.31 176.95C952.057 178.147 952.43 179.888 952.43 182.175C952.43 184.462 952.057 186.211 951.31 187.421C950.577 188.63 949.497 189.235 948.07 189.235C946.657 189.235 945.577 188.63 944.83 187.421C944.084 186.211 943.71 184.462 943.71 182.175C943.71 179.902 944.084 178.16 944.83 176.95C945.577 175.74 946.657 175.135 948.07 175.135ZM945.13 182.175C945.13 183.797 945.277 185.067 945.57 185.985L950.01 177.15C949.543 176.525 948.897 176.212 948.07 176.212C947.15 176.212 946.43 176.704 945.91 177.688C945.39 178.659 945.13 180.154 945.13 182.175ZM948.07 188.139C949.003 188.139 949.73 187.653 950.25 186.683C950.77 185.699 951.03 184.196 951.03 182.175C951.03 180.46 950.863 179.131 950.53 178.187L946.09 187.101C946.57 187.793 947.23 188.139 948.07 188.139Z" fill="url(#paint67_linear_175_1815)"/>
<path d="M948.07 197.928C949.497 197.928 950.577 198.533 951.31 199.743C952.057 200.94 952.43 202.681 952.43 204.968C952.43 207.255 952.057 209.003 951.31 210.213C950.577 211.423 949.497 212.028 948.07 212.028C946.657 212.028 945.577 211.423 944.83 210.213C944.084 209.003 943.71 207.255 943.71 204.968C943.71 202.695 944.084 200.953 944.83 199.743C945.577 198.533 946.657 197.928 948.07 197.928ZM945.13 204.968C945.13 206.59 945.277 207.86 945.57 208.777L950.01 199.942C949.543 199.317 948.897 199.005 948.07 199.005C947.15 199.005 946.43 199.497 945.91 200.481C945.39 201.451 945.13 202.947 945.13 204.968ZM948.07 210.931C949.003 210.931 949.73 210.446 950.25 209.475C950.77 208.492 951.03 206.989 951.03 204.968C951.03 203.253 950.863 201.923 950.53 200.979L946.09 209.894C946.57 210.586 947.23 210.931 948.07 210.931Z" fill="url(#paint68_linear_175_1815)"/>
<path d="M949.27 233.565H952.21V234.622H944.59V233.565H947.99V222.356L944.75 224.291L944.19 223.393L948.19 220.92H949.27V233.565Z" fill="url(#paint69_linear_175_1815)"/>
<path d="M948.07 243.514C949.497 243.514 950.577 244.119 951.31 245.329C952.057 246.525 952.43 248.267 952.43 250.554C952.43 252.841 952.057 254.589 951.31 255.799C950.577 257.009 949.497 257.614 948.07 257.614C946.657 257.614 945.577 257.009 944.83 255.799C944.084 254.589 943.71 252.841 943.71 250.554C943.71 248.28 944.084 246.538 944.83 245.329C945.577 244.119 946.657 243.514 948.07 243.514ZM945.13 250.554C945.13 252.176 945.277 253.446 945.57 254.363L950.01 245.528C949.543 244.903 948.897 244.591 948.07 244.591C947.15 244.591 946.43 245.083 945.91 246.066C945.39 247.037 945.13 248.533 945.13 250.554ZM948.07 256.517C949.003 256.517 949.73 256.032 950.25 255.061C950.77 254.077 951.03 252.575 951.03 250.554C951.03 248.839 950.863 247.509 950.53 246.565L946.09 255.48C946.57 256.171 947.23 256.517 948.07 256.517Z" fill="url(#paint70_linear_175_1815)"/>
<path d="M949.27 279.15H952.21V280.207H944.59V279.15H947.99V267.942L944.75 269.876L944.19 268.979L948.19 266.506H949.27V279.15Z" fill="url(#paint71_linear_175_1815)"/>
<path d="M949.27 301.943H952.21V303H944.59V301.943H947.99V290.735L944.75 292.669L944.19 291.772L948.19 289.299H949.27V301.943Z" fill="url(#paint72_linear_175_1815)"/>
<path d="M892.36 38.3784C893.786 38.3784 894.866 38.9834 895.599 40.1933C896.346 41.3899 896.719 43.1317 896.719 45.4185C896.719 47.7054 896.346 49.4538 895.599 50.6637C894.866 51.8736 893.786 52.4786 892.36 52.4786C890.946 52.4786 889.867 51.8736 889.12 50.6637C888.373 49.4538 888 47.7054 888 45.4185C888 43.145 888.373 41.4032 889.12 40.1933C889.867 38.9834 890.946 38.3784 892.36 38.3784ZM889.42 45.4185C889.42 47.0406 889.567 48.3104 889.86 49.2278L894.3 40.3927C893.833 39.7678 893.186 39.4554 892.36 39.4554C891.44 39.4554 890.72 39.9473 890.2 40.9312C889.68 41.9018 889.42 43.3976 889.42 45.4185ZM892.36 51.3817C893.293 51.3817 894.02 50.8964 894.54 49.9258C895.06 48.9419 895.319 47.4395 895.319 45.4185C895.319 43.7034 895.153 42.3738 894.82 41.4298L890.38 50.3446C890.86 51.036 891.52 51.3817 892.36 51.3817Z" fill="url(#paint73_linear_175_1815)"/>
<path d="M892.36 61.1712C893.786 61.1712 894.866 61.7762 895.599 62.9861C896.346 64.1827 896.719 65.9245 896.719 68.2113C896.719 70.4982 896.346 72.2466 895.599 73.4565C894.866 74.6665 893.786 75.2714 892.36 75.2714C890.946 75.2714 889.867 74.6665 889.12 73.4565C888.373 72.2466 888 70.4982 888 68.2113C888 65.9378 888.373 64.196 889.12 62.9861C889.867 61.7762 890.946 61.1712 892.36 61.1712ZM889.42 68.2113C889.42 69.8334 889.567 71.1032 889.86 72.0206L894.3 63.1855C893.833 62.5606 893.186 62.2482 892.36 62.2482C891.44 62.2482 890.72 62.7401 890.2 63.724C889.68 64.6946 889.42 66.1904 889.42 68.2113ZM892.36 74.1745C893.293 74.1745 894.02 73.6892 894.54 72.7186C895.06 71.7347 895.319 70.2323 895.319 68.2113C895.319 66.4962 895.153 65.1666 894.82 64.2226L890.38 73.1374C890.86 73.8288 891.52 74.1745 892.36 74.1745Z" fill="url(#paint74_linear_175_1815)"/>
<path d="M893.56 96.8078H896.499V97.8648H888.88V96.8078H892.28V85.5994L889.04 87.5339L888.48 86.6365L892.48 84.1635H893.56V96.8078Z" fill="url(#paint75_linear_175_1815)"/>
<path d="M892.36 106.757C893.786 106.757 894.866 107.362 895.599 108.572C896.346 109.768 896.719 111.51 896.719 113.797C896.719 116.084 896.346 117.832 895.599 119.042C894.866 120.252 893.786 120.857 892.36 120.857C890.946 120.857 889.867 120.252 889.12 119.042C888.373 117.832 888 116.084 888 113.797C888 111.523 888.373 109.782 889.12 108.572C889.867 107.362 890.946 106.757 892.36 106.757ZM889.42 113.797C889.42 115.419 889.567 116.689 889.86 117.606L894.3 108.771C893.833 108.146 893.186 107.834 892.36 107.834C891.44 107.834 890.72 108.326 890.2 109.31C889.68 110.28 889.42 111.776 889.42 113.797ZM892.36 119.76C893.293 119.76 894.02 119.275 894.54 118.304C895.06 117.32 895.319 115.818 895.319 113.797C895.319 112.082 895.153 110.752 894.82 109.808L890.38 118.723C890.86 119.414 891.52 119.76 892.36 119.76Z" fill="url(#paint76_linear_175_1815)"/>
<path d="M893.56 142.393H896.499V143.45H888.88V142.393H892.28V131.185L889.04 133.12L888.48 132.222L892.48 129.749H893.56V142.393Z" fill="url(#paint77_linear_175_1815)"/>
<path d="M893.56 165.186H896.499V166.243H888.88V165.186H892.28V153.978L889.04 155.912L888.48 155.015L892.48 152.542H893.56V165.186Z" fill="url(#paint78_linear_175_1815)"/>
<path d="M930.7 5.63655H933.64V6.69356H926.02V5.63655H929.42V-5.57181L926.18 -3.63727L925.62 -4.53474L929.62 -7.00776H930.7V5.63655Z" fill="url(#paint79_linear_175_1815)"/>
<path d="M929.5 15.5856C930.927 15.5856 932.006 16.1906 932.74 17.4005C933.486 18.5971 933.86 20.3389 933.86 22.6257C933.86 24.9126 933.486 26.661 932.74 27.8709C932.006 29.0808 930.927 29.6858 929.5 29.6858C928.087 29.6858 927.007 29.0808 926.26 27.8709C925.514 26.661 925.14 24.9126 925.14 22.6257C925.14 20.3521 925.514 18.6104 926.26 17.4005C927.007 16.1906 928.087 15.5856 929.5 15.5856ZM926.56 22.6257C926.56 24.2478 926.707 25.5176 927 26.435L931.44 17.5999C930.973 16.975 930.327 16.6626 929.5 16.6626C928.58 16.6626 927.86 17.1545 927.34 18.1384C926.82 19.109 926.56 20.6048 926.56 22.6257ZM929.5 28.5889C930.433 28.5889 931.16 28.1036 931.68 27.133C932.2 26.1491 932.46 24.6467 932.46 22.6257C932.46 20.9106 932.293 19.581 931.96 18.637L927.52 27.5518C928 28.2432 928.66 28.5889 929.5 28.5889Z" fill="url(#paint80_linear_175_1815)"/>
<path d="M930.7 51.2221H933.64V52.2792H926.02V51.2221H929.42V40.0138L926.18 41.9483L925.62 41.0509L929.62 38.5778H930.7V51.2221Z" fill="url(#paint81_linear_175_1815)"/>
<path d="M930.7 74.015H933.64V75.072H926.02V74.015H929.42V62.8066L926.18 64.7411L925.62 63.8437L929.62 61.3706H930.7V74.015Z" fill="url(#paint82_linear_175_1815)"/>
<path d="M929.5 83.964C930.927 83.964 932.006 84.569 932.74 85.7789C933.486 86.9755 933.86 88.7173 933.86 91.0041C933.86 93.291 933.486 95.0394 932.74 96.2493C932.006 97.4593 930.927 98.0642 929.5 98.0642C928.087 98.0642 927.007 97.4593 926.26 96.2493C925.514 95.0394 925.14 93.291 925.14 91.0041C925.14 88.7306 925.514 86.9888 926.26 85.7789C927.007 84.569 928.087 83.964 929.5 83.964ZM926.56 91.0041C926.56 92.6262 926.707 93.896 927 94.8134L931.44 85.9783C930.973 85.3534 930.327 85.041 929.5 85.041C928.58 85.041 927.86 85.5329 927.34 86.5168C926.82 87.4874 926.56 88.9832 926.56 91.0041ZM929.5 96.9673C930.433 96.9673 931.16 96.482 931.68 95.5114C932.2 94.5275 932.46 93.0251 932.46 91.0041C932.46 89.289 932.293 87.9594 931.96 87.0154L927.52 95.9302C928 96.6216 928.66 96.9673 929.5 96.9673Z" fill="url(#paint83_linear_175_1815)"/>
<path d="M930.7 119.601H933.64V120.658H926.02V119.601H929.42V108.392L926.18 110.327L925.62 109.429L929.62 106.956H930.7V119.601Z" fill="url(#paint84_linear_175_1815)"/>
<path d="M930.7 142.393H933.64V143.45H926.02V142.393H929.42V131.185L926.18 133.12L925.62 132.222L929.62 129.749H930.7V142.393Z" fill="url(#paint85_linear_175_1815)"/>
<path d="M929.5 152.342C930.927 152.342 932.006 152.947 932.74 154.157C933.486 155.354 933.86 157.096 933.86 159.383C933.86 161.669 933.486 163.418 932.74 164.628C932.006 165.838 930.927 166.443 929.5 166.443C928.087 166.443 927.007 165.838 926.26 164.628C925.514 163.418 925.14 161.669 925.14 159.383C925.14 157.109 925.514 155.367 926.26 154.157C927.007 152.947 928.087 152.342 929.5 152.342ZM926.56 159.383C926.56 161.005 926.707 162.274 927 163.192L931.44 154.357C930.973 153.732 930.327 153.419 929.5 153.419C928.58 153.419 927.86 153.911 927.34 154.895C926.82 155.866 926.56 157.362 926.56 159.383ZM929.5 165.346C930.433 165.346 931.16 164.86 931.68 163.89C932.2 162.906 932.46 161.404 932.46 159.383C932.46 157.667 932.293 156.338 931.96 155.394L927.52 164.309C928 165 928.66 165.346 929.5 165.346Z" fill="url(#paint86_linear_175_1815)"/>
<path d="M930.7 187.979H933.64V189.036H926.02V187.979H929.42V176.771L926.18 178.705L925.62 177.808L929.62 175.335H930.7V187.979Z" fill="url(#paint87_linear_175_1815)"/>
<path d="M929.5 197.928C930.927 197.928 932.006 198.533 932.74 199.743C933.486 200.94 933.86 202.681 933.86 204.968C933.86 207.255 933.486 209.003 932.74 210.213C932.006 211.423 930.927 212.028 929.5 212.028C928.087 212.028 927.007 211.423 926.26 210.213C925.514 209.003 925.14 207.255 925.14 204.968C925.14 202.695 925.514 200.953 926.26 199.743C927.007 198.533 928.087 197.928 929.5 197.928ZM926.56 204.968C926.56 206.59 926.707 207.86 927 208.777L931.44 199.942C930.973 199.317 930.327 199.005 929.5 199.005C928.58 199.005 927.86 199.497 927.34 200.481C926.82 201.451 926.56 202.947 926.56 204.968ZM929.5 210.931C930.433 210.931 931.16 210.446 931.68 209.475C932.2 208.492 932.46 206.989 932.46 204.968C932.46 203.253 932.293 201.923 931.96 200.979L927.52 209.894C928 210.586 928.66 210.931 929.5 210.931Z" fill="url(#paint88_linear_175_1815)"/>
<path d="M966.64 -7.2072C968.067 -7.2072 969.147 -6.60224 969.88 -5.39232C970.627 -4.1957 971 -2.45395 971 -0.167072C971 2.1198 970.627 3.86821 969.88 5.07812C969.147 6.28804 968.067 6.893 966.64 6.893C965.227 6.893 964.147 6.28804 963.401 5.07812C962.654 3.86821 962.281 2.1198 962.281 -0.167072C962.281 -2.44065 962.654 -4.1824 963.401 -5.39232C964.147 -6.60224 965.227 -7.2072 966.64 -7.2072ZM963.701 -0.167072C963.701 1.45502 963.847 2.72477 964.14 3.64218L968.58 -5.19288C968.114 -5.81779 967.467 -6.13024 966.64 -6.13024C965.72 -6.13024 965 -5.63829 964.48 -4.6544C963.96 -3.68381 963.701 -2.18803 963.701 -0.167072ZM966.64 5.7961C967.574 5.7961 968.3 5.3108 968.82 4.34021C969.34 3.35632 969.6 1.85389 969.6 -0.167072C969.6 -1.88223 969.433 -3.21181 969.1 -4.15581L964.66 4.75902C965.14 5.45041 965.8 5.7961 966.64 5.7961Z" fill="url(#paint89_linear_175_1815)"/>
<path d="M967.84 28.4293H970.78V29.4864H963.161V28.4293H966.56V17.221L963.321 19.1555L962.761 18.2581L966.76 15.785H967.84V28.4293Z" fill="url(#paint90_linear_175_1815)"/>
<path d="M967.84 51.2221H970.78V52.2792H963.161V51.2221H966.56V40.0138L963.321 41.9483L962.761 41.0509L966.76 38.5778H967.84V51.2221Z" fill="url(#paint91_linear_175_1815)"/>
<path d="M966.64 61.1712C968.067 61.1712 969.147 61.7762 969.88 62.9861C970.627 64.1827 971 65.9245 971 68.2113C971 70.4982 970.627 72.2466 969.88 73.4565C969.147 74.6665 968.067 75.2714 966.64 75.2714C965.227 75.2714 964.147 74.6665 963.401 73.4565C962.654 72.2466 962.281 70.4982 962.281 68.2113C962.281 65.9378 962.654 64.196 963.401 62.9861C964.147 61.7762 965.227 61.1712 966.64 61.1712ZM963.701 68.2113C963.701 69.8334 963.847 71.1032 964.14 72.0206L968.58 63.1855C968.114 62.5606 967.467 62.2482 966.64 62.2482C965.72 62.2482 965 62.7401 964.48 63.724C963.96 64.6946 963.701 66.1904 963.701 68.2113ZM966.64 74.1745C967.574 74.1745 968.3 73.6892 968.82 72.7186C969.34 71.7347 969.6 70.2323 969.6 68.2113C969.6 66.4962 969.433 65.1666 969.1 64.2226L964.66 73.1374C965.14 73.8288 965.8 74.1745 966.64 74.1745Z" fill="url(#paint92_linear_175_1815)"/>
<path d="M966.64 83.964C968.067 83.964 969.147 84.569 969.88 85.7789C970.627 86.9755 971 88.7173 971 91.0041C971 93.291 970.627 95.0394 969.88 96.2493C969.147 97.4593 968.067 98.0642 966.64 98.0642C965.227 98.0642 964.147 97.4593 963.401 96.2493C962.654 95.0394 962.281 93.291 962.281 91.0041C962.281 88.7306 962.654 86.9888 963.401 85.7789C964.147 84.569 965.227 83.964 966.64 83.964ZM963.701 91.0041C963.701 92.6262 963.847 93.896 964.14 94.8134L968.58 85.9783C968.114 85.3534 967.467 85.041 966.64 85.041C965.72 85.041 965 85.5329 964.48 86.5168C963.96 87.4874 963.701 88.9832 963.701 91.0041ZM966.64 96.9673C967.574 96.9673 968.3 96.482 968.82 95.5114C969.34 94.5275 969.6 93.0251 969.6 91.0041C969.6 89.289 969.433 87.9594 969.1 87.0154L964.66 95.9302C965.14 96.6216 965.8 96.9673 966.64 96.9673Z" fill="url(#paint93_linear_175_1815)"/>
</g>
<defs>
<linearGradient id="paint0_linear_175_1815" x1="43.5" y1="270" x2="43.5" y2="581.381" gradientUnits="userSpaceOnUse">
<stop stop-color="#F7DD43"/>
<stop offset="1" stop-color="#F7DD43" stop-opacity="0"/>
</linearGradient>
<linearGradient id="paint1_linear_175_1815" x1="43.5" y1="270" x2="43.5" y2="581.381" gradientUnits="userSpaceOnUse">
<stop stop-color="#F7DD43"/>
<stop offset="1" stop-color="#F7DD43" stop-opacity="0"/>
</linearGradient>
<linearGradient id="paint2_linear_175_1815" x1="43.5" y1="270" x2="43.5" y2="581.381" gradientUnits="userSpaceOnUse">
<stop stop-color="#F7DD43"/>
<stop offset="1" stop-color="#F7DD43" stop-opacity="0"/>
</linearGradient>
<linearGradient id="paint3_linear_175_1815" x1="43.5" y1="270" x2="43.5" y2="581.381" gradientUnits="userSpaceOnUse">
<stop stop-color="#F7DD43"/>
<stop offset="1" stop-color="#F7DD43" stop-opacity="0"/>
</linearGradient>
<linearGradient id="paint4_linear_175_1815" x1="43.5" y1="270" x2="43.5" y2="581.381" gradientUnits="userSpaceOnUse">
<stop stop-color="#F7DD43"/>
<stop offset="1" stop-color="#F7DD43" stop-opacity="0"/>
</linearGradient>
<linearGradient id="paint5_linear_175_1815" x1="43.5" y1="270" x2="43.5" y2="581.381" gradientUnits="userSpaceOnUse">
<stop stop-color="#F7DD43"/>
<stop offset="1" stop-color="#F7DD43" stop-opacity="0"/>
</linearGradient>
<linearGradient id="paint6_linear_175_1815" x1="43.5" y1="270" x2="43.5" y2="581.381" gradientUnits="userSpaceOnUse">
<stop stop-color="#F7DD43"/>
<stop offset="1" stop-color="#F7DD43" stop-opacity="0"/>
</linearGradient>
<linearGradient id="paint7_linear_175_1815" x1="43.5" y1="270" x2="43.5" y2="581.381" gradientUnits="userSpaceOnUse">
<stop stop-color="#F7DD43"/>
<stop offset="1" stop-color="#F7DD43" stop-opacity="0"/>
</linearGradient>
<linearGradient id="paint8_linear_175_1815" x1="43.5" y1="270" x2="43.5" y2="581.381" gradientUnits="userSpaceOnUse">
<stop stop-color="#F7DD43"/>
<stop offset="1" stop-color="#F7DD43" stop-opacity="0"/>
</linearGradient>
<linearGradient id="paint9_linear_175_1815" x1="43.5" y1="270" x2="43.5" y2="581.381" gradientUnits="userSpaceOnUse">
<stop stop-color="#F7DD43"/>
<stop offset="1" stop-color="#F7DD43" stop-opacity="0"/>
</linearGradient>
<linearGradient id="paint10_linear_175_1815" x1="43.5" y1="270" x2="43.5" y2="581.381" gradientUnits="userSpaceOnUse">
<stop stop-color="#F7DD43"/>
<stop offset="1" stop-color="#F7DD43" stop-opacity="0"/>
</linearGradient>
<linearGradient id="paint11_linear_175_1815" x1="43.5" y1="270" x2="43.5" y2="581.381" gradientUnits="userSpaceOnUse">
<stop stop-color="#F7DD43"/>
<stop offset="1" stop-color="#F7DD43" stop-opacity="0"/>
</linearGradient>
<linearGradient id="paint12_linear_175_1815" x1="43.5" y1="270" x2="43.5" y2="581.381" gradientUnits="userSpaceOnUse">
<stop stop-color="#F7DD43"/>
<stop offset="1" stop-color="#F7DD43" stop-opacity="0"/>
</linearGradient>
<linearGradient id="paint13_linear_175_1815" x1="43.5" y1="270" x2="43.5" y2="581.381" gradientUnits="userSpaceOnUse">
<stop stop-color="#F7DD43"/>
<stop offset="1" stop-color="#F7DD43" stop-opacity="0"/>
</linearGradient>
<linearGradient id="paint14_linear_175_1815" x1="43.5" y1="270" x2="43.5" y2="581.381" gradientUnits="userSpaceOnUse">
<stop stop-color="#F7DD43"/>
<stop offset="1" stop-color="#F7DD43" stop-opacity="0"/>
</linearGradient>
<linearGradient id="paint15_linear_175_1815" x1="43.5" y1="270" x2="43.5" y2="581.381" gradientUnits="userSpaceOnUse">
<stop stop-color="#F7DD43"/>
<stop offset="1" stop-color="#F7DD43" stop-opacity="0"/>
</linearGradient>
<linearGradient id="paint16_linear_175_1815" x1="43.5" y1="270" x2="43.5" y2="581.381" gradientUnits="userSpaceOnUse">
<stop stop-color="#F7DD43"/>
<stop offset="1" stop-color="#F7DD43" stop-opacity="0"/>
</linearGradient>
<linearGradient id="paint17_linear_175_1815" x1="43.5" y1="270" x2="43.5" y2="581.381" gradientUnits="userSpaceOnUse">
<stop stop-color="#F7DD43"/>
<stop offset="1" stop-color="#F7DD43" stop-opacity="0"/>
</linearGradient>
<linearGradient id="paint18_linear_175_1815" x1="43.5" y1="270" x2="43.5" y2="581.381" gradientUnits="userSpaceOnUse">
<stop stop-color="#F7DD43"/>
<stop offset="1" stop-color="#F7DD43" stop-opacity="0"/>
</linearGradient>
<linearGradient id="paint19_linear_175_1815" x1="43.5" y1="270" x2="43.5" y2="581.381" gradientUnits="userSpaceOnUse">
<stop stop-color="#F7DD43"/>
<stop offset="1" stop-color="#F7DD43" stop-opacity="0"/>
</linearGradient>
<linearGradient id="paint20_linear_175_1815" x1="43.5" y1="270" x2="43.5" y2="581.381" gradientUnits="userSpaceOnUse">
<stop stop-color="#F7DD43"/>
<stop offset="1" stop-color="#F7DD43" stop-opacity="0"/>
</linearGradient>
<linearGradient id="paint21_linear_175_1815" x1="43.5" y1="270" x2="43.5" y2="581.381" gradientUnits="userSpaceOnUse">
<stop stop-color="#F7DD43"/>
<stop offset="1" stop-color="#F7DD43" stop-opacity="0"/>
</linearGradient>
<linearGradient id="paint22_linear_175_1815" x1="43.5" y1="270" x2="43.5" y2="581.381" gradientUnits="userSpaceOnUse">
<stop stop-color="#F7DD43"/>
<stop offset="1" stop-color="#F7DD43" stop-opacity="0"/>
</linearGradient>
<linearGradient id="paint23_linear_175_1815" x1="43.5" y1="270" x2="43.5" y2="581.381" gradientUnits="userSpaceOnUse">
<stop stop-color="#F7DD43"/>
<stop offset="1" stop-color="#F7DD43" stop-opacity="0"/>
</linearGradient>
<linearGradient id="paint24_linear_175_1815" x1="43.5" y1="270" x2="43.5" y2="581.381" gradientUnits="userSpaceOnUse">
<stop stop-color="#F7DD43"/>
<stop offset="1" stop-color="#F7DD43" stop-opacity="0"/>
</linearGradient>
<linearGradient id="paint25_linear_175_1815" x1="43.5" y1="270" x2="43.5" y2="581.381" gradientUnits="userSpaceOnUse">
<stop stop-color="#F7DD43"/>
<stop offset="1" stop-color="#F7DD43" stop-opacity="0"/>
</linearGradient>
<linearGradient id="paint26_linear_175_1815" x1="43.5" y1="270" x2="43.5" y2="581.381" gradientUnits="userSpaceOnUse">
<stop stop-color="#F7DD43"/>
<stop offset="1" stop-color="#F7DD43" stop-opacity="0"/>
</linearGradient>
<linearGradient id="paint27_linear_175_1815" x1="43.5" y1="270" x2="43.5" y2="581.381" gradientUnits="userSpaceOnUse">
<stop stop-color="#F7DD43"/>
<stop offset="1" stop-color="#F7DD43" stop-opacity="0"/>
</linearGradient>
<linearGradient id="paint28_linear_175_1815" x1="43.5" y1="270" x2="43.5" y2="581.381" gradientUnits="userSpaceOnUse">
<stop stop-color="#F7DD43"/>
<stop offset="1" stop-color="#F7DD43" stop-opacity="0"/>
</linearGradient>
<linearGradient id="paint29_linear_175_1815" x1="43.5" y1="270" x2="43.5" y2="581.381" gradientUnits="userSpaceOnUse">
<stop stop-color="#F7DD43"/>
<stop offset="1" stop-color="#F7DD43" stop-opacity="0"/>
</linearGradient>
<linearGradient id="paint30_linear_175_1815" x1="43.5" y1="270" x2="43.5" y2="581.381" gradientUnits="userSpaceOnUse">
<stop stop-color="#F7DD43"/>
<stop offset="1" stop-color="#F7DD43" stop-opacity="0"/>
</linearGradient>
<linearGradient id="paint31_linear_175_1815" x1="43.5" y1="270" x2="43.5" y2="581.381" gradientUnits="userSpaceOnUse">
<stop stop-color="#F7DD43"/>
<stop offset="1" stop-color="#F7DD43" stop-opacity="0"/>
</linearGradient>
<linearGradient id="paint32_linear_175_1815" x1="43.5" y1="270" x2="43.5" y2="581.381" gradientUnits="userSpaceOnUse">
<stop stop-color="#F7DD43"/>
<stop offset="1" stop-color="#F7DD43" stop-opacity="0"/>
</linearGradient>
<linearGradient id="paint33_linear_175_1815" x1="43.5" y1="270" x2="43.5" y2="581.381" gradientUnits="userSpaceOnUse">
<stop stop-color="#F7DD43"/>
<stop offset="1" stop-color="#F7DD43" stop-opacity="0"/>
</linearGradient>
<linearGradient id="paint34_linear_175_1815" x1="43.5" y1="270" x2="43.5" y2="581.381" gradientUnits="userSpaceOnUse">
<stop stop-color="#F7DD43"/>
<stop offset="1" stop-color="#F7DD43" stop-opacity="0"/>
</linearGradient>
<linearGradient id="paint35_linear_175_1815" x1="43.5" y1="270" x2="43.5" y2="581.381" gradientUnits="userSpaceOnUse">
<stop stop-color="#F7DD43"/>
<stop offset="1" stop-color="#F7DD43" stop-opacity="0"/>
</linearGradient>
<linearGradient id="paint36_linear_175_1815" x1="43.5" y1="270" x2="43.5" y2="581.381" gradientUnits="userSpaceOnUse">
<stop stop-color="#F7DD43"/>
<stop offset="1" stop-color="#F7DD43" stop-opacity="0"/>
</linearGradient>
<linearGradient id="paint37_linear_175_1815" x1="43.5" y1="270" x2="43.5" y2="581.381" gradientUnits="userSpaceOnUse">
<stop stop-color="#F7DD43"/>
<stop offset="1" stop-color="#F7DD43" stop-opacity="0"/>
</linearGradient>
<linearGradient id="paint38_linear_175_1815" x1="43.5" y1="270" x2="43.5" y2="581.381" gradientUnits="userSpaceOnUse">
<stop stop-color="#F7DD43"/>
<stop offset="1" stop-color="#F7DD43" stop-opacity="0"/>
</linearGradient>
<linearGradient id="paint39_linear_175_1815" x1="43.5" y1="270" x2="43.5" y2="581.381" gradientUnits="userSpaceOnUse">
<stop stop-color="#F7DD43"/>
<stop offset="1" stop-color="#F7DD43" stop-opacity="0"/>
</linearGradient>
<linearGradient id="paint40_linear_175_1815" x1="43.5" y1="270" x2="43.5" y2="581.381" gradientUnits="userSpaceOnUse">
<stop stop-color="#F7DD43"/>
<stop offset="1" stop-color="#F7DD43" stop-opacity="0"/>
</linearGradient>
<linearGradient id="paint41_linear_175_1815" x1="43.5" y1="270" x2="43.5" y2="581.381" gradientUnits="userSpaceOnUse">
<stop stop-color="#F7DD43"/>
<stop offset="1" stop-color="#F7DD43" stop-opacity="0"/>
</linearGradient>
<linearGradient id="paint42_linear_175_1815" x1="43.5" y1="270" x2="43.5" y2="581.381" gradientUnits="userSpaceOnUse">
<stop stop-color="#F7DD43"/>
<stop offset="1" stop-color="#F7DD43" stop-opacity="0"/>
</linearGradient>
<linearGradient id="paint43_linear_175_1815" x1="43.5" y1="270" x2="43.5" y2="581.381" gradientUnits="userSpaceOnUse">
<stop stop-color="#F7DD43"/>
<stop offset="1" stop-color="#F7DD43" stop-opacity="0"/>
</linearGradient>
<linearGradient id="paint44_linear_175_1815" x1="43.5" y1="270" x2="43.5" y2="581.381" gradientUnits="userSpaceOnUse">
<stop stop-color="#F7DD43"/>
<stop offset="1" stop-color="#F7DD43" stop-opacity="0"/>
</linearGradient>
<linearGradient id="paint45_linear_175_1815" x1="43.5" y1="270" x2="43.5" y2="581.381" gradientUnits="userSpaceOnUse">
<stop stop-color="#F7DD43"/>
<stop offset="1" stop-color="#F7DD43" stop-opacity="0"/>
</linearGradient>
<linearGradient id="paint46_linear_175_1815" x1="43.5" y1="270" x2="43.5" y2="581.381" gradientUnits="userSpaceOnUse">
<stop stop-color="#F7DD43"/>
<stop offset="1" stop-color="#F7DD43" stop-opacity="0"/>
</linearGradient>
<linearGradient id="paint47_linear_175_1815" x1="929.5" y1="-30" x2="929.5" y2="268.818" gradientUnits="userSpaceOnUse">
<stop stop-color="#F7DD43"/>
<stop offset="1" stop-color="#F7DD43" stop-opacity="0"/>
</linearGradient>
<linearGradient id="paint48_linear_175_1815" x1="929.5" y1="-30" x2="929.5" y2="268.818" gradientUnits="userSpaceOnUse">
<stop stop-color="#F7DD43"/>
<stop offset="1" stop-color="#F7DD43" stop-opacity="0"/>
</linearGradient>
<linearGradient id="paint49_linear_175_1815" x1="929.5" y1="-30" x2="929.5" y2="268.818" gradientUnits="userSpaceOnUse">
<stop stop-color="#F7DD43"/>
<stop offset="1" stop-color="#F7DD43" stop-opacity="0"/>
</linearGradient>
<linearGradient id="paint50_linear_175_1815" x1="929.5" y1="-30" x2="929.5" y2="268.818" gradientUnits="userSpaceOnUse">
<stop stop-color="#F7DD43"/>
<stop offset="1" stop-color="#F7DD43" stop-opacity="0"/>
</linearGradient>
<linearGradient id="paint51_linear_175_1815" x1="929.5" y1="-30" x2="929.5" y2="268.818" gradientUnits="userSpaceOnUse">
<stop stop-color="#F7DD43"/>
<stop offset="1" stop-color="#F7DD43" stop-opacity="0"/>
</linearGradient>
<linearGradient id="paint52_linear_175_1815" x1="929.5" y1="-30" x2="929.5" y2="268.818" gradientUnits="userSpaceOnUse">
<stop stop-color="#F7DD43"/>
<stop offset="1" stop-color="#F7DD43" stop-opacity="0"/>
</linearGradient>
<linearGradient id="paint53_linear_175_1815" x1="929.5" y1="-30" x2="929.5" y2="268.818" gradientUnits="userSpaceOnUse">
<stop stop-color="#F7DD43"/>
<stop offset="1" stop-color="#F7DD43" stop-opacity="0"/>
</linearGradient>
<linearGradient id="paint54_linear_175_1815" x1="929.5" y1="-30" x2="929.5" y2="268.818" gradientUnits="userSpaceOnUse">
<stop stop-color="#F7DD43"/>
<stop offset="1" stop-color="#F7DD43" stop-opacity="0"/>
</linearGradient>
<linearGradient id="paint55_linear_175_1815" x1="929.5" y1="-30" x2="929.5" y2="268.818" gradientUnits="userSpaceOnUse">
<stop stop-color="#F7DD43"/>
<stop offset="1" stop-color="#F7DD43" stop-opacity="0"/>
</linearGradient>
<linearGradient id="paint56_linear_175_1815" x1="929.5" y1="-30" x2="929.5" y2="268.818" gradientUnits="userSpaceOnUse">
<stop stop-color="#F7DD43"/>
<stop offset="1" stop-color="#F7DD43" stop-opacity="0"/>
</linearGradient>
<linearGradient id="paint57_linear_175_1815" x1="929.5" y1="-30" x2="929.5" y2="268.818" gradientUnits="userSpaceOnUse">
<stop stop-color="#F7DD43"/>
<stop offset="1" stop-color="#F7DD43" stop-opacity="0"/>
</linearGradient>
<linearGradient id="paint58_linear_175_1815" x1="929.5" y1="-30" x2="929.5" y2="268.818" gradientUnits="userSpaceOnUse">
<stop stop-color="#F7DD43"/>
<stop offset="1" stop-color="#F7DD43" stop-opacity="0"/>
</linearGradient>
<linearGradient id="paint59_linear_175_1815" x1="929.5" y1="-30" x2="929.5" y2="268.818" gradientUnits="userSpaceOnUse">
<stop stop-color="#F7DD43"/>
<stop offset="1" stop-color="#F7DD43" stop-opacity="0"/>
</linearGradient>
<linearGradient id="paint60_linear_175_1815" x1="929.5" y1="-30" x2="929.5" y2="268.818" gradientUnits="userSpaceOnUse">
<stop stop-color="#F7DD43"/>
<stop offset="1" stop-color="#F7DD43" stop-opacity="0"/>
</linearGradient>
<linearGradient id="paint61_linear_175_1815" x1="929.5" y1="-30" x2="929.5" y2="268.818" gradientUnits="userSpaceOnUse">
<stop stop-color="#F7DD43"/>
<stop offset="1" stop-color="#F7DD43" stop-opacity="0"/>
</linearGradient>
<linearGradient id="paint62_linear_175_1815" x1="929.5" y1="-30" x2="929.5" y2="268.818" gradientUnits="userSpaceOnUse">
<stop stop-color="#F7DD43"/>
<stop offset="1" stop-color="#F7DD43" stop-opacity="0"/>
</linearGradient>
<linearGradient id="paint63_linear_175_1815" x1="929.5" y1="-30" x2="929.5" y2="268.818" gradientUnits="userSpaceOnUse">
<stop stop-color="#F7DD43"/>
<stop offset="1" stop-color="#F7DD43" stop-opacity="0"/>
</linearGradient>
<linearGradient id="paint64_linear_175_1815" x1="929.5" y1="-30" x2="929.5" y2="268.818" gradientUnits="userSpaceOnUse">
<stop stop-color="#F7DD43"/>
<stop offset="1" stop-color="#F7DD43" stop-opacity="0"/>
</linearGradient>
<linearGradient id="paint65_linear_175_1815" x1="929.5" y1="-30" x2="929.5" y2="268.818" gradientUnits="userSpaceOnUse">
<stop stop-color="#F7DD43"/>
<stop offset="1" stop-color="#F7DD43" stop-opacity="0"/>
</linearGradient>
<linearGradient id="paint66_linear_175_1815" x1="929.5" y1="-30" x2="929.5" y2="268.818" gradientUnits="userSpaceOnUse">
<stop stop-color="#F7DD43"/>
<stop offset="1" stop-color="#F7DD43" stop-opacity="0"/>
</linearGradient>
<linearGradient id="paint67_linear_175_1815" x1="929.5" y1="-30" x2="929.5" y2="268.818" gradientUnits="userSpaceOnUse">
<stop stop-color="#F7DD43"/>
<stop offset="1" stop-color="#F7DD43" stop-opacity="0"/>
</linearGradient>
<linearGradient id="paint68_linear_175_1815" x1="929.5" y1="-30" x2="929.5" y2="268.818" gradientUnits="userSpaceOnUse">
<stop stop-color="#F7DD43"/>
<stop offset="1" stop-color="#F7DD43" stop-opacity="0"/>
</linearGradient>
<linearGradient id="paint69_linear_175_1815" x1="929.5" y1="-30" x2="929.5" y2="268.818" gradientUnits="userSpaceOnUse">
<stop stop-color="#F7DD43"/>
<stop offset="1" stop-color="#F7DD43" stop-opacity="0"/>
</linearGradient>
<linearGradient id="paint70_linear_175_1815" x1="929.5" y1="-30" x2="929.5" y2="268.818" gradientUnits="userSpaceOnUse">
<stop stop-color="#F7DD43"/>
<stop offset="1" stop-color="#F7DD43" stop-opacity="0"/>
</linearGradient>
<linearGradient id="paint71_linear_175_1815" x1="929.5" y1="-30" x2="929.5" y2="268.818" gradientUnits="userSpaceOnUse">
<stop stop-color="#F7DD43"/>
<stop offset="1" stop-color="#F7DD43" stop-opacity="0"/>
</linearGradient>
<linearGradient id="paint72_linear_175_1815" x1="929.5" y1="-30" x2="929.5" y2="268.818" gradientUnits="userSpaceOnUse">
<stop stop-color="#F7DD43"/>
<stop offset="1" stop-color="#F7DD43" stop-opacity="0"/>
</linearGradient>
<linearGradient id="paint73_linear_175_1815" x1="929.5" y1="-30" x2="929.5" y2="268.818" gradientUnits="userSpaceOnUse">
<stop stop-color="#F7DD43"/>
<stop offset="1" stop-color="#F7DD43" stop-opacity="0"/>
</linearGradient>
<linearGradient id="paint74_linear_175_1815" x1="929.5" y1="-30" x2="929.5" y2="268.818" gradientUnits="userSpaceOnUse">
<stop stop-color="#F7DD43"/>
<stop offset="1" stop-color="#F7DD43" stop-opacity="0"/>
</linearGradient>
<linearGradient id="paint75_linear_175_1815" x1="929.5" y1="-30" x2="929.5" y2="268.818" gradientUnits="userSpaceOnUse">
<stop stop-color="#F7DD43"/>
<stop offset="1" stop-color="#F7DD43" stop-opacity="0"/>
</linearGradient>
<linearGradient id="paint76_linear_175_1815" x1="929.5" y1="-30" x2="929.5" y2="268.818" gradientUnits="userSpaceOnUse">
<stop stop-color="#F7DD43"/>
<stop offset="1" stop-color="#F7DD43" stop-opacity="0"/>
</linearGradient>
<linearGradient id="paint77_linear_175_1815" x1="929.5" y1="-30" x2="929.5" y2="268.818" gradientUnits="userSpaceOnUse">
<stop stop-color="#F7DD43"/>
<stop offset="1" stop-color="#F7DD43" stop-opacity="0"/>
</linearGradient>
<linearGradient id="paint78_linear_175_1815" x1="929.5" y1="-30" x2="929.5" y2="268.818" gradientUnits="userSpaceOnUse">
<stop stop-color="#F7DD43"/>
<stop offset="1" stop-color="#F7DD43" stop-opacity="0"/>
</linearGradient>
<linearGradient id="paint79_linear_175_1815" x1="929.5" y1="-30" x2="929.5" y2="268.818" gradientUnits="userSpaceOnUse">
<stop stop-color="#F7DD43"/>
<stop offset="1" stop-color="#F7DD43" stop-opacity="0"/>
</linearGradient>
<linearGradient id="paint80_linear_175_1815" x1="929.5" y1="-30" x2="929.5" y2="268.818" gradientUnits="userSpaceOnUse">
<stop stop-color="#F7DD43"/>
<stop offset="1" stop-color="#F7DD43" stop-opacity="0"/>
</linearGradient>
<linearGradient id="paint81_linear_175_1815" x1="929.5" y1="-30" x2="929.5" y2="268.818" gradientUnits="userSpaceOnUse">
<stop stop-color="#F7DD43"/>
<stop offset="1" stop-color="#F7DD43" stop-opacity="0"/>
</linearGradient>
<linearGradient id="paint82_linear_175_1815" x1="929.5" y1="-30" x2="929.5" y2="268.818" gradientUnits="userSpaceOnUse">
<stop stop-color="#F7DD43"/>
<stop offset="1" stop-color="#F7DD43" stop-opacity="0"/>
</linearGradient>
<linearGradient id="paint83_linear_175_1815" x1="929.5" y1="-30" x2="929.5" y2="268.818" gradientUnits="userSpaceOnUse">
<stop stop-color="#F7DD43"/>
<stop offset="1" stop-color="#F7DD43" stop-opacity="0"/>
</linearGradient>
<linearGradient id="paint84_linear_175_1815" x1="929.5" y1="-30" x2="929.5" y2="268.818" gradientUnits="userSpaceOnUse">
<stop stop-color="#F7DD43"/>
<stop offset="1" stop-color="#F7DD43" stop-opacity="0"/>
</linearGradient>
<linearGradient id="paint85_linear_175_1815" x1="929.5" y1="-30" x2="929.5" y2="268.818" gradientUnits="userSpaceOnUse">
<stop stop-color="#F7DD43"/>
<stop offset="1" stop-color="#F7DD43" stop-opacity="0"/>
</linearGradient>
<linearGradient id="paint86_linear_175_1815" x1="929.5" y1="-30" x2="929.5" y2="268.818" gradientUnits="userSpaceOnUse">
<stop stop-color="#F7DD43"/>
<stop offset="1" stop-color="#F7DD43" stop-opacity="0"/>
</linearGradient>
<linearGradient id="paint87_linear_175_1815" x1="929.5" y1="-30" x2="929.5" y2="268.818" gradientUnits="userSpaceOnUse">
<stop stop-color="#F7DD43"/>
<stop offset="1" stop-color="#F7DD43" stop-opacity="0"/>
</linearGradient>
<linearGradient id="paint88_linear_175_1815" x1="929.5" y1="-30" x2="929.5" y2="268.818" gradientUnits="userSpaceOnUse">
<stop stop-color="#F7DD43"/>
<stop offset="1" stop-color="#F7DD43" stop-opacity="0"/>
</linearGradient>
<linearGradient id="paint89_linear_175_1815" x1="929.5" y1="-30" x2="929.5" y2="268.818" gradientUnits="userSpaceOnUse">
<stop stop-color="#F7DD43"/>
<stop offset="1" stop-color="#F7DD43" stop-opacity="0"/>
</linearGradient>
<linearGradient id="paint90_linear_175_1815" x1="929.5" y1="-30" x2="929.5" y2="268.818" gradientUnits="userSpaceOnUse">
<stop stop-color="#F7DD43"/>
<stop offset="1" stop-color="#F7DD43" stop-opacity="0"/>
</linearGradient>
<linearGradient id="paint91_linear_175_1815" x1="929.5" y1="-30" x2="929.5" y2="268.818" gradientUnits="userSpaceOnUse">
<stop stop-color="#F7DD43"/>
<stop offset="1" stop-color="#F7DD43" stop-opacity="0"/>
</linearGradient>
<linearGradient id="paint92_linear_175_1815" x1="929.5" y1="-30" x2="929.5" y2="268.818" gradientUnits="userSpaceOnUse">
<stop stop-color="#F7DD43"/>
<stop offset="1" stop-color="#F7DD43" stop-opacity="0"/>
</linearGradient>
<linearGradient id="paint93_linear_175_1815" x1="929.5" y1="-30" x2="929.5" y2="268.818" gradientUnits="userSpaceOnUse">
<stop stop-color="#F7DD43"/>
<stop offset="1" stop-color="#F7DD43" stop-opacity="0"/>
</linearGradient>
</defs>
</svg>
